# MagicaVoxel @ Ephtracy

# group
o 

# material
mtllib cave.mtl
usemtl palette

# normals
vn -1 0 0
vn 1 0 0
vn 0 0 1
vn 0 0 -1
vn 0 -1 0
vn 0 1 0

# texcoords
vt 0.978516 0.5
vt 0.986328 0.5
vt 0.990234 0.5
vt 0.994141 0.5

# verts
v -2 0 2
v -2 0 -1.5
v -2 0 -4.6
v -2 0 -6
v -2 1.2 -1.5
v -2 1.2 -4.6
v -2 4.1 2
v -2 4.1 -6
v 4.6 0 -2.6
v 4.6 0 -2.7
v 4.6 2.7 -2.6
v 4.6 2.7 -2.7
v 4.7 0 -2
v 4.7 0 -2.6
v 4.7 2.8 -2
v 4.7 2.8 -2.6
v 4.8 0 -1.8
v 4.8 0 -2
v 4.8 2.9 -1.8
v 4.8 2.9 -2
v 5.1 0 -0.9
v 5.1 0 -1.8
v 5.1 3.2 -0.9
v 5.1 3.2 -1.8
v 5.2 0 -0.5
v 5.2 0 -0.9
v 5.2 3.3 -0.5
v 5.2 3.3 -0.8
v 5.2 3.3 -0.9
v 5.3 0 0.2
v 5.3 0 -0.5
v 5.3 3.4 0.2
v 5.3 3.4 -0.5
v 5.4 0 0.8
v 5.4 0 0.2
v 5.4 3.5 0.8
v 5.4 3.5 0.2
v 5.5 0 1.6
v 5.5 0 0.8
v 5.5 3.6 1.6
v 5.5 3.6 0.8
v 5.6 0 2
v 5.6 0 1.6
v 5.6 3.7 2
v 5.6 3.7 1.6
v -1.6 0 2
v -1.6 0 1.6
v -1.6 3.7 2
v -1.6 3.7 1.6
v -1.5 0 1.6
v -1.5 0 0.8
v -1.5 3.6 1.6
v -1.5 3.6 0.8
v -1.4 0 0.8
v -1.4 0 0.2
v -1.4 3.5 0.8
v -1.4 3.5 0.2
v -1.3 0 0.2
v -1.3 0 -0.5
v -1.3 3.4 0.2
v -1.3 3.4 -0.5
v -1.2 0 -0.5
v -1.2 0 -0.9
v -1.2 3.3 -0.5
v -1.2 3.3 -0.8
v -1.2 3.3 -0.9
v -1.1 0 -0.9
v -1.1 0 -1.8
v -1.1 3.2 -0.9
v -1.1 3.2 -1.8
v -0.8 0 -1.8
v -0.8 0 -2
v -0.8 2.9 -1.8
v -0.8 2.9 -2
v -0.7 0 -2
v -0.7 0 -2.6
v -0.7 2.8 -2
v -0.7 2.8 -2.6
v -0.6 0 -2.6
v -0.6 0 -2.7
v -0.6 2.7 -2.6
v -0.6 2.7 -2.7
v 6 0 2
v 6 0 -6
v 6 0.6 -3.5
v 6 0.6 -3.9
v 6 0.7 1.4
v 6 0.7 -0.2
v 6 2.1 -3.5
v 6 2.1 -3.9
v 6 2.7 1.4
v 6 2.7 -0.2
v 6 4.1 2
v 6 4.1 -6
v -2 0 2
v -2 4.1 2
v -1.6 0 2
v -1.6 3.7 2
v -0.3 3.7 2
v -0.3 4.1 2
v 0.7 3.7 2
v 0.7 4.1 2
v 1.4 3.8 2
v 1.4 4.1 2
v 2.4 3.8 2
v 2.4 4.1 2
v 3.9 3.9 2
v 3.9 4.1 2
v 4.3 3.9 2
v 4.3 4.1 2
v 5.6 0 2
v 5.6 3.7 2
v 6 0 2
v 6 4.1 2
v -1.6 0 1.6
v -1.6 3.7 1.6
v -1.5 0 1.6
v -1.5 3.6 1.6
v -0.3 3.7 1.6
v 0.7 3.7 1.6
v 5.5 0 1.6
v 5.5 3.6 1.6
v 5.6 0 1.6
v 5.6 3.7 1.6
v -1.5 0 0.8
v -1.5 3.6 0.8
v -1.4 0 0.8
v -1.4 3.5 0.8
v 5.4 0 0.8
v 5.4 3.5 0.8
v 5.5 0 0.8
v 5.5 3.6 0.8
v -1.4 0 0.2
v -1.4 3.5 0.2
v -1.3 0 0.2
v -1.3 3.4 0.2
v 5.3 0 0.2
v 5.3 3.4 0.2
v 5.4 0 0.2
v 5.4 3.5 0.2
v -1.3 0 -0.5
v -1.3 3.4 -0.5
v -1.2 0 -0.5
v -1.2 3.3 -0.5
v 5.2 0 -0.5
v 5.2 3.3 -0.5
v 5.3 0 -0.5
v 5.3 3.4 -0.5
v -1.2 0 -0.9
v -1.2 3.3 -0.9
v -1.1 0 -0.9
v -1.1 3.2 -0.9
v 5.1 0 -0.9
v 5.1 3.2 -0.9
v 5.2 0 -0.9
v 5.2 3.3 -0.9
v -1.1 0 -1.8
v -1.1 3.2 -1.8
v -0.8 0 -1.8
v -0.8 2.9 -1.8
v 4.8 0 -1.8
v 4.8 2.9 -1.8
v 5.1 0 -1.8
v 5.1 3.2 -1.8
v -0.8 0 -2
v -0.8 2.9 -2
v -0.7 0 -2
v -0.7 2.8 -2
v 4.7 0 -2
v 4.7 2.8 -2
v 4.8 0 -2
v 4.8 2.9 -2
v -0.7 0 -2.6
v -0.7 2.8 -2.6
v -0.6 0 -2.6
v -0.6 2.7 -2.6
v 4.6 0 -2.6
v 4.6 2.7 -2.6
v 4.7 0 -2.6
v 4.7 2.8 -2.6
v -0.6 0 -2.7
v -0.6 2.7 -2.7
v 4.6 0 -2.7
v 4.6 2.7 -2.7
v -2 0 -6
v -2 4.1 -6
v 6 0 -6
v 6 4.1 -6
v -2 0 2
v -1.6 0 2
v 5.6 0 2
v 6 0 2
v -1.6 0 1.6
v -1.5 0 1.6
v 5.5 0 1.6
v 5.6 0 1.6
v -1.5 0 0.8
v -1.4 0 0.8
v 5.4 0 0.8
v 5.5 0 0.8
v -1.4 0 0.2
v -1.3 0 0.2
v 5.3 0 0.2
v 5.4 0 0.2
v -1.4 0 -0.5
v -1.3 0 -0.5
v -1.2 0 -0.5
v 5.2 0 -0.5
v 5.3 0 -0.5
v 5.4 0 -0.5
v -1.3 0 -0.9
v -1.2 0 -0.9
v -1.1 0 -0.9
v 5.1 0 -0.9
v 5.2 0 -0.9
v 5.3 0 -0.9
v -2 0 -1.5
v -1.9 0 -1.5
v -1.1 0 -1.8
v -0.8 0 -1.8
v 4.8 0 -1.8
v 5.1 0 -1.8
v -0.8 0 -2
v -0.7 0 -2
v 4.7 0 -2
v 4.8 0 -2
v -0.7 0 -2.6
v -0.6 0 -2.6
v 4.6 0 -2.6
v 4.7 0 -2.6
v -0.6 0 -2.7
v 4.6 0 -2.7
v -1.2 0 -2.8
v 5.2 0 -2.8
v -2 0 -4.6
v -1.9 0 -4.6
v -2 0 -6
v 6 0 -6
v -0.6 2.7 -2.6
v 4.6 2.7 -2.6
v -0.6 2.7 -2.7
v 4.6 2.7 -2.7
v -0.7 2.8 -2
v 4.7 2.8 -2
v -0.7 2.8 -2.6
v 4.7 2.8 -2.6
v -0.8 2.9 -1.8
v 4.8 2.9 -1.8
v -0.8 2.9 -2
v 4.8 2.9 -2
v -1.1 3.2 -0.9
v 5.1 3.2 -0.9
v -1.1 3.2 -1.8
v 5.1 3.2 -1.8
v -1.2 3.3 -0.5
v 5.2 3.3 -0.5
v -1.2 3.3 -0.8
v 5.2 3.3 -0.8
v -1.2 3.3 -0.9
v 5.2 3.3 -0.9
v -1.3 3.4 0.2
v 5.3 3.4 0.2
v -1.3 3.4 -0.5
v 5.3 3.4 -0.5
v -1.4 3.5 0.8
v 5.4 3.5 0.8
v -1.4 3.5 0.2
v 5.4 3.5 0.2
v -1.5 3.6 1.6
v 5.5 3.6 1.6
v -1.5 3.6 0.8
v 5.5 3.6 0.8
v -1.6 3.7 2
v -0.3 3.7 2
v 0.7 3.7 2
v 5.6 3.7 2
v -1.6 3.7 1.6
v -0.3 3.7 1.6
v 0.7 3.7 1.6
v 5.6 3.7 1.6
v -2 4.1 2
v -0.3 4.1 2
v 0.7 4.1 2
v 1.4 4.1 2
v 2.4 4.1 2
v 3.9 4.1 2
v 4.3 4.1 2
v 6 4.1 2
v 1.4 4.1 1.9
v 2.4 4.1 1.9
v -0.3 4.1 1.3
v 0.7 4.1 1.3
v -0.3 4.1 0.5
v 0.8 4.1 0.5
v 3.5 4.1 -0.2
v 3.9 4.1 -0.2
v 4.3 4.1 -0.2
v 5.3 4.1 -0.2
v 3.5 4.1 -0.3
v 3.9 4.1 -0.3
v 4.3 4.1 -0.3
v 5.3 4.1 -0.3
v -0.3 4.1 -0.7
v 0.8 4.1 -0.7
v -1.5 4.1 -1.5
v -0.5 4.1 -1.5
v -0.3 4.1 -2.3
v 2.6 4.1 -2.3
v -0.3 4.1 -2.9
v 2.6 4.1 -2.9
v -1.5 4.1 -3.8
v -0.5 4.1 -3.8
v 3.9 4.1 -4.6
v 4.3 4.1 -4.6
v -2 4.1 -6
v 6 4.1 -6

# faces
f 5/2/1 2/2/1 1/2/1
f 5/1/1 3/1/1 2/1/1
f 6/2/1 4/2/1 3/2/1
f 6/1/1 3/1/1 5/1/1
f 7/2/1 5/2/1 1/2/1
f 7/2/1 6/2/1 5/2/1
f 8/2/1 4/2/1 6/2/1
f 8/2/1 6/2/1 7/2/1
f 11/4/1 10/4/1 9/4/1
f 12/4/1 10/4/1 11/4/1
f 15/4/1 14/4/1 13/4/1
f 16/4/1 14/4/1 15/4/1
f 19/4/1 18/4/1 17/4/1
f 20/4/1 18/4/1 19/4/1
f 23/4/1 22/4/1 21/4/1
f 24/4/1 22/4/1 23/4/1
f 27/3/1 26/3/1 25/3/1
f 28/3/1 26/3/1 27/3/1
f 29/3/1 26/3/1 28/3/1
f 32/3/1 31/3/1 30/3/1
f 33/3/1 31/3/1 32/3/1
f 36/2/1 35/2/1 34/2/1
f 37/2/1 35/2/1 36/2/1
f 40/2/1 39/2/1 38/2/1
f 41/2/1 39/2/1 40/2/1
f 44/2/1 43/2/1 42/2/1
f 45/2/1 43/2/1 44/2/1
f 46/2/2 47/2/2 48/2/2
f 48/2/2 47/2/2 49/2/2
f 50/2/2 51/2/2 52/2/2
f 52/2/2 51/2/2 53/2/2
f 54/2/2 55/2/2 56/2/2
f 56/2/2 55/2/2 57/2/2
f 58/3/2 59/3/2 60/3/2
f 60/3/2 59/3/2 61/3/2
f 62/3/2 63/3/2 64/3/2
f 64/3/2 63/3/2 65/3/2
f 65/3/2 63/3/2 66/3/2
f 67/4/2 68/4/2 69/4/2
f 69/4/2 68/4/2 70/4/2
f 71/4/2 72/4/2 73/4/2
f 73/4/2 72/4/2 74/4/2
f 75/4/2 76/4/2 77/4/2
f 77/4/2 76/4/2 78/4/2
f 79/4/2 80/4/2 81/4/2
f 81/4/2 80/4/2 82/4/2
f 83/2/2 84/2/2 85/2/2
f 85/2/2 84/2/2 86/2/2
f 83/2/2 85/2/2 87/2/2
f 87/2/2 85/2/2 88/2/2
f 85/1/2 86/1/2 89/1/2
f 88/2/2 85/2/2 89/2/2
f 86/2/2 84/2/2 90/2/2
f 89/1/2 86/1/2 90/1/2
f 87/1/2 88/1/2 91/1/2
f 83/2/2 87/2/2 91/2/2
f 88/2/2 89/2/2 92/2/2
f 91/1/2 88/1/2 92/1/2
f 89/2/2 90/2/2 92/2/2
f 83/2/2 91/2/2 93/2/2
f 91/2/2 92/2/2 93/2/2
f 92/2/2 90/2/2 94/2/2
f 93/2/2 92/2/2 94/2/2
f 90/2/2 84/2/2 94/2/2
f 97/2/3 96/2/3 95/2/3
f 98/2/3 96/2/3 97/2/3
f 99/2/3 96/2/3 98/2/3
f 100/2/3 96/2/3 99/2/3
f 101/1/3 100/1/3 99/1/3
f 102/1/3 100/1/3 101/1/3
f 103/2/3 102/2/3 101/2/3
f 104/2/3 102/2/3 103/2/3
f 105/2/3 103/2/3 101/2/3
f 105/1/3 104/1/3 103/1/3
f 106/1/3 104/1/3 105/1/3
f 107/2/3 106/2/3 105/2/3
f 108/2/3 106/2/3 107/2/3
f 109/2/3 107/2/3 105/2/3
f 109/1/3 108/1/3 107/1/3
f 110/1/3 108/1/3 109/1/3
f 112/2/3 105/2/3 101/2/3
f 112/2/3 109/2/3 105/2/3
f 112/2/3 110/2/3 109/2/3
f 113/2/3 112/2/3 111/2/3
f 114/2/3 110/2/3 112/2/3
f 114/2/3 112/2/3 113/2/3
f 117/2/3 116/2/3 115/2/3
f 118/2/3 116/2/3 117/2/3
f 119/2/3 116/2/3 118/2/3
f 120/2/3 119/2/3 118/2/3
f 122/2/3 120/2/3 118/2/3
f 123/2/3 122/2/3 121/2/3
f 124/2/3 120/2/3 122/2/3
f 124/2/3 122/2/3 123/2/3
f 127/2/3 126/2/3 125/2/3
f 128/2/3 126/2/3 127/2/3
f 130/2/3 126/2/3 128/2/3
f 131/2/3 130/2/3 129/2/3
f 132/2/3 126/2/3 130/2/3
f 132/2/3 130/2/3 131/2/3
f 135/3/3 134/3/3 133/3/3
f 136/3/3 134/3/3 135/3/3
f 138/3/3 134/3/3 136/3/3
f 139/3/3 138/3/3 137/3/3
f 140/3/3 134/3/3 138/3/3
f 140/3/3 138/3/3 139/3/3
f 143/3/3 142/3/3 141/3/3
f 144/3/3 142/3/3 143/3/3
f 146/3/3 142/3/3 144/3/3
f 147/3/3 146/3/3 145/3/3
f 148/3/3 142/3/3 146/3/3
f 148/3/3 146/3/3 147/3/3
f 151/4/3 150/4/3 149/4/3
f 152/4/3 150/4/3 151/4/3
f 154/4/3 150/4/3 152/4/3
f 155/4/3 154/4/3 153/4/3
f 156/4/3 150/4/3 154/4/3
f 156/4/3 154/4/3 155/4/3
f 159/4/3 158/4/3 157/4/3
f 160/4/3 158/4/3 159/4/3
f 162/4/3 158/4/3 160/4/3
f 163/4/3 162/4/3 161/4/3
f 164/4/3 158/4/3 162/4/3
f 164/4/3 162/4/3 163/4/3
f 167/4/3 166/4/3 165/4/3
f 168/4/3 166/4/3 167/4/3
f 170/4/3 166/4/3 168/4/3
f 171/4/3 170/4/3 169/4/3
f 172/4/3 166/4/3 170/4/3
f 172/4/3 170/4/3 171/4/3
f 175/4/3 174/4/3 173/4/3
f 176/4/3 174/4/3 175/4/3
f 178/4/3 174/4/3 176/4/3
f 179/4/3 178/4/3 177/4/3
f 180/4/3 174/4/3 178/4/3
f 180/4/3 178/4/3 179/4/3
f 183/4/3 182/4/3 181/4/3
f 184/4/3 182/4/3 183/4/3
f 185/2/4 186/2/4 187/2/4
f 187/2/4 186/2/4 188/2/4
f 193/2/5 190/2/5 189/2/5
f 196/2/5 192/2/5 191/2/5
f 197/2/5 194/2/5 193/2/5
f 200/2/5 196/2/5 195/2/5
f 201/2/5 198/2/5 197/2/5
f 204/2/5 200/2/5 199/2/5
f 205/3/5 202/3/5 201/3/5
f 205/2/5 201/2/5 197/2/5
f 206/3/5 202/3/5 205/3/5
f 209/3/5 204/3/5 203/3/5
f 210/2/5 200/2/5 204/2/5
f 210/3/5 204/3/5 209/3/5
f 211/3/5 207/3/5 206/3/5
f 211/2/5 206/2/5 205/2/5
f 212/3/5 207/3/5 211/3/5
f 215/3/5 209/3/5 208/3/5
f 216/2/5 210/2/5 209/2/5
f 216/3/5 209/3/5 215/3/5
f 217/2/5 193/2/5 189/2/5
f 217/2/5 197/2/5 193/2/5
f 217/2/5 205/2/5 197/2/5
f 217/2/5 211/2/5 205/2/5
f 217/2/5 212/2/5 211/2/5
f 218/2/5 212/2/5 217/2/5
f 219/4/5 213/4/5 212/4/5
f 222/4/5 215/4/5 214/4/5
f 223/4/5 220/4/5 219/4/5
f 226/4/5 222/4/5 221/4/5
f 227/4/5 224/4/5 223/4/5
f 230/4/5 226/4/5 225/4/5
f 231/4/5 228/4/5 227/4/5
f 232/4/5 230/4/5 229/4/5
f 233/2/5 212/2/5 218/2/5
f 233/4/5 232/4/5 231/4/5
f 233/4/5 231/4/5 227/4/5
f 233/4/5 219/4/5 212/4/5
f 233/4/5 223/4/5 219/4/5
f 233/4/5 227/4/5 223/4/5
f 234/2/5 216/2/5 215/2/5
f 234/4/5 232/4/5 233/4/5
f 234/4/5 230/4/5 232/4/5
f 234/4/5 222/4/5 226/4/5
f 234/4/5 226/4/5 230/4/5
f 234/4/5 215/4/5 222/4/5
f 235/1/5 218/1/5 217/1/5
f 236/2/5 233/2/5 218/2/5
f 236/1/5 218/1/5 235/1/5
f 236/2/5 234/2/5 233/2/5
f 237/2/5 236/2/5 235/2/5
f 238/2/5 200/2/5 210/2/5
f 238/2/5 236/2/5 237/2/5
f 238/2/5 210/2/5 216/2/5
f 238/2/5 234/2/5 236/2/5
f 238/2/5 192/2/5 196/2/5
f 238/2/5 196/2/5 200/2/5
f 238/2/5 216/2/5 234/2/5
f 241/4/5 240/4/5 239/4/5
f 242/4/5 240/4/5 241/4/5
f 245/4/5 244/4/5 243/4/5
f 246/4/5 244/4/5 245/4/5
f 249/4/5 248/4/5 247/4/5
f 250/4/5 248/4/5 249/4/5
f 253/4/5 252/4/5 251/4/5
f 254/4/5 252/4/5 253/4/5
f 257/3/5 256/3/5 255/3/5
f 258/3/5 256/3/5 257/3/5
f 259/4/5 258/4/5 257/4/5
f 260/4/5 258/4/5 259/4/5
f 263/3/5 262/3/5 261/3/5
f 264/3/5 262/3/5 263/3/5
f 267/2/5 266/2/5 265/2/5
f 268/2/5 266/2/5 267/2/5
f 271/2/5 270/2/5 269/2/5
f 272/2/5 270/2/5 271/2/5
f 277/2/5 274/2/5 273/2/5
f 278/1/5 275/1/5 274/1/5
f 278/2/5 274/2/5 277/2/5
f 279/2/5 276/2/5 275/2/5
f 279/1/5 275/1/5 278/1/5
f 280/2/5 276/2/5 279/2/5
f 283/2/6 284/2/6 289/2/6
f 284/1/6 285/1/6 289/1/6
f 285/2/6 286/2/6 290/2/6
f 289/1/6 285/1/6 290/1/6
f 281/2/6 282/2/6 291/2/6
f 282/1/6 283/1/6 291/1/6
f 289/2/6 290/2/6 292/2/6
f 291/1/6 283/1/6 292/1/6
f 283/2/6 289/2/6 292/2/6
f 281/2/6 291/2/6 293/2/6
f 291/2/6 292/2/6 293/2/6
f 292/2/6 290/2/6 294/2/6
f 293/2/6 292/2/6 294/2/6
f 290/2/6 286/2/6 295/2/6
f 294/2/6 290/2/6 295/2/6
f 286/1/6 287/1/6 296/1/6
f 295/2/6 286/2/6 296/2/6
f 287/2/6 288/2/6 297/2/6
f 296/1/6 287/1/6 297/1/6
f 297/2/6 288/2/6 298/2/6
f 295/1/6 296/1/6 299/1/6
f 294/2/6 295/2/6 299/2/6
f 297/1/6 298/1/6 299/1/6
f 296/1/6 297/1/6 299/1/6
f 299/1/6 298/1/6 300/1/6
f 300/1/6 298/1/6 301/1/6
f 298/2/6 288/2/6 302/2/6
f 301/1/6 298/1/6 302/1/6
f 293/1/6 294/1/6 303/1/6
f 281/2/6 293/2/6 303/2/6
f 294/2/6 299/2/6 304/2/6
f 303/1/6 294/1/6 304/1/6
f 299/2/6 300/2/6 304/2/6
f 281/2/6 303/2/6 305/2/6
f 303/2/6 304/2/6 305/2/6
f 305/2/6 304/2/6 306/2/6
f 306/2/6 304/2/6 307/2/6
f 304/2/6 300/2/6 308/2/6
f 307/2/6 304/2/6 308/2/6
f 306/2/6 307/2/6 309/2/6
f 307/1/6 308/1/6 309/1/6
f 308/2/6 300/2/6 310/2/6
f 309/1/6 308/1/6 310/1/6
f 281/2/6 305/2/6 311/2/6
f 305/1/6 306/1/6 311/1/6
f 306/2/6 309/2/6 312/2/6
f 311/1/6 306/1/6 312/1/6
f 309/2/6 310/2/6 312/2/6
f 300/1/6 301/1/6 313/1/6
f 312/2/6 310/2/6 313/2/6
f 311/2/6 312/2/6 313/2/6
f 310/2/6 300/2/6 313/2/6
f 301/2/6 302/2/6 314/2/6
f 313/1/6 301/1/6 314/1/6
f 311/2/6 313/2/6 315/2/6
f 281/2/6 311/2/6 315/2/6
f 313/2/6 314/2/6 315/2/6
f 302/2/6 288/2/6 316/2/6
f 315/2/6 314/2/6 316/2/6
f 314/2/6 302/2/6 316/2/6
