# MagicaVoxel @ Ephtracy

# group
o 

# material
mtllib rFlower.mtl
usemtl palette

# normals
vn -1 0 0
vn 1 0 0
vn 0 0 1
vn 0 0 -1
vn 0 -1 0
vn 0 1 0

# texcoords
vt 0.0410156 0.5
vt 0.537109 0.5
vt 0.841797 0.5
vt 0.849609 0.5
vt 0.896484 0.5

# verts
v 1.9 2 -1.9
v 1.9 2 -2.4
v 1.9 2.1 -1.9
v 1.9 2.1 -2.4
v 1.9 2.3 -1.8
v 1.9 2.3 -2
v 1.9 2.4 -1.7
v 1.9 2.4 -1.8
v 1.9 2.5 -1.7
v 1.9 2.5 -2
v 1.9 2.5 -2.1
v 1.9 2.5 -2.2
v 1.9 2.5 -2.3
v 1.9 2.6 -2
v 1.9 2.6 -2.1
v 1.9 2.6 -2.2
v 1.9 2.6 -2.3
v 1.9 2.6 -2.4
v 1.9 2.7 -1.9
v 1.9 2.7 -2
v 1.9 2.7 -2.1
v 1.9 2.7 -2.3
v 1.9 2.7 -2.4
v 1.9 2.7 -2.5
v 1.9 2.8 -1.9
v 1.9 2.8 -2
v 1.9 2.8 -2.1
v 1.9 2.8 -2.4
v 1.9 2.8 -2.5
v 1.9 2.9 -1.9
v 1.9 2.9 -2
v 1.9 2.9 -2.1
v 1.9 2.9 -2.3
v 1.9 2.9 -2.4
v 1.9 2.9 -2.5
v 1.9 3 -2
v 1.9 3 -2.1
v 1.9 3 -2.3
v 1.9 3 -2.4
v 1.9 3.1 -2.1
v 1.9 3.1 -2.3
v 2 2.1 -2
v 2 2.1 -2.3
v 2 2.2 -2
v 2 2.2 -2.1
v 2 2.2 -2.2
v 2 2.2 -2.3
v 2 2.4 -2
v 2 2.4 -2.1
v 2 2.5 -2
v 2 2.5 -2.1
v 2 2.5 -2.2
v 2 2.7 -2.1
v 2 2.7 -2.3
v 2 2.8 -2.1
v 2 2.9 -2.1
v 2 2.9 -2.3
v 2 2.3 -1.8
v 2 2.3 -2
v 2 2.4 -1.7
v 2 2.4 -1.8
v 2 2.4 -2
v 2 2.5 -1.7
v 2 2.5 -2
v 2 2.5 -2.2
v 2 2.5 -2.3
v 2 2.6 -2
v 2 2.6 -2.1
v 2 2.6 -2.2
v 2 2.6 -2.3
v 2 2.6 -2.4
v 2 2.7 -1.9
v 2 2.7 -2
v 2 2.7 -2.1
v 2 2.7 -2.2
v 2 2.7 -2.3
v 2 2.7 -2.4
v 2 2.7 -2.5
v 2 2.8 -1.9
v 2 2.8 -2
v 2 2.8 -2.4
v 2 2.8 -2.5
v 2 2.9 -1.9
v 2 2.9 -2
v 2 2.9 -2.1
v 2 2.9 -2.3
v 2 2.9 -2.4
v 2 2.9 -2.5
v 2 3 -2
v 2 3 -2.1
v 2 3 -2.3
v 2 3 -2.4
v 2 3.1 -2.1
v 2 3.1 -2.3
v 2.1 2.1 -2
v 2.1 2.1 -2.3
v 2.1 2.2 -2
v 2.1 2.2 -2.1
v 2.1 2.2 -2.2
v 2.1 2.2 -2.3
v 2.1 2.4 -2
v 2.1 2.4 -2.1
v 2.1 2.5 -2
v 2.1 2.5 -2.1
v 2.1 2.7 -2
v 2.1 2.7 -2.1
v 2.1 2.7 -2.2
v 2.1 2.7 -2.3
v 2.1 2.7 -2.4
v 2.1 2.9 -2
v 2.1 2.9 -2.1
v 2.1 2.9 -2.3
v 2.1 2.9 -2.4
v 2.1 3 -2.1
v 2.1 3 -2.3
v 2.2 2 -1.9
v 2.2 2 -2.4
v 2.2 2.1 -1.9
v 2.2 2.1 -2.4
v 1.9 2.4 -1.7
v 1.9 2.5 -1.7
v 2 2.4 -1.7
v 2 2.5 -1.7
v 1.9 2.3 -1.8
v 1.9 2.4 -1.8
v 2 2.3 -1.8
v 2 2.4 -1.8
v 1.9 2 -1.9
v 1.9 2.1 -1.9
v 1.9 2.7 -1.9
v 1.9 2.8 -1.9
v 1.9 2.9 -1.9
v 2 2.7 -1.9
v 2 2.8 -1.9
v 2 2.9 -1.9
v 2.2 2 -1.9
v 2.2 2.1 -1.9
v 1.9 2.6 -2
v 1.9 2.7 -2
v 1.9 2.9 -2
v 1.9 3 -2
v 2 2.1 -2
v 2 2.2 -2
v 2 2.4 -2
v 2 2.5 -2
v 2 2.6 -2
v 2 2.7 -2
v 2 2.8 -2
v 2 2.9 -2
v 2 3 -2
v 2.1 2.1 -2
v 2.1 2.2 -2
v 2.1 2.4 -2
v 2.1 2.5 -2
v 2.1 2.7 -2
v 2.1 2.9 -2
v 1.9 2.5 -2.1
v 1.9 2.6 -2.1
v 1.9 3 -2.1
v 1.9 3.1 -2.1
v 2 2.2 -2.1
v 2 2.4 -2.1
v 2 2.5 -2.1
v 2 2.6 -2.1
v 2 2.7 -2.1
v 2 2.9 -2.1
v 2 3 -2.1
v 2 3.1 -2.1
v 2.1 2.2 -2.1
v 2.1 2.4 -2.1
v 2.1 2.5 -2.1
v 2.1 2.7 -2.1
v 2.1 2.9 -2.1
v 2.1 3 -2.1
v 1.9 2.7 -2.3
v 1.9 2.9 -2.3
v 2 2.7 -2.3
v 2 2.9 -2.3
v 1.9 2.3 -2
v 1.9 2.5 -2
v 2 2.3 -2
v 2 2.4 -2
v 2 2.5 -2
v 1.9 2.7 -2.1
v 1.9 2.8 -2.1
v 1.9 2.9 -2.1
v 2 2.7 -2.1
v 2 2.8 -2.1
v 2 2.9 -2.1
v 2 2.2 -2.2
v 2 2.5 -2.2
v 2 2.6 -2.2
v 2 2.7 -2.2
v 2.1 2.2 -2.2
v 2.1 2.7 -2.2
v 1.9 2.5 -2.3
v 1.9 2.6 -2.3
v 1.9 3 -2.3
v 1.9 3.1 -2.3
v 2 2.1 -2.3
v 2 2.2 -2.3
v 2 2.5 -2.3
v 2 2.6 -2.3
v 2 2.9 -2.3
v 2 3 -2.3
v 2 3.1 -2.3
v 2.1 2.1 -2.3
v 2.1 2.2 -2.3
v 2.1 2.9 -2.3
v 2.1 3 -2.3
v 1.9 2 -2.4
v 1.9 2.1 -2.4
v 1.9 2.6 -2.4
v 1.9 2.7 -2.4
v 1.9 2.9 -2.4
v 1.9 3 -2.4
v 2 2.6 -2.4
v 2 2.7 -2.4
v 2 2.8 -2.4
v 2 2.9 -2.4
v 2 3 -2.4
v 2.1 2.7 -2.4
v 2.1 2.9 -2.4
v 2.2 2 -2.4
v 2.2 2.1 -2.4
v 1.9 2.7 -2.5
v 1.9 2.8 -2.5
v 1.9 2.9 -2.5
v 2 2.7 -2.5
v 2 2.8 -2.5
v 2 2.9 -2.5
v 1.9 2 -1.9
v 2.2 2 -1.9
v 1.9 2 -2.4
v 2.2 2 -2.4
v 1.9 2.3 -1.8
v 2 2.3 -1.8
v 1.9 2.3 -2
v 2 2.3 -2
v 1.9 2.4 -1.7
v 2 2.4 -1.7
v 1.9 2.4 -1.8
v 2 2.4 -1.8
v 2 2.4 -2
v 2.1 2.4 -2
v 2 2.4 -2.1
v 2.1 2.4 -2.1
v 1.9 2.5 -2.1
v 2 2.5 -2.1
v 1.9 2.5 -2.2
v 2 2.5 -2.2
v 1.9 2.5 -2.3
v 2 2.5 -2.3
v 1.9 2.6 -2
v 2 2.6 -2
v 1.9 2.6 -2.1
v 2 2.6 -2.1
v 1.9 2.6 -2.3
v 2 2.6 -2.3
v 1.9 2.6 -2.4
v 2 2.6 -2.4
v 1.9 2.7 -1.9
v 2 2.7 -1.9
v 1.9 2.7 -2
v 2 2.7 -2
v 2.1 2.7 -2
v 2 2.7 -2.1
v 2.1 2.7 -2.1
v 2 2.7 -2.2
v 2.1 2.7 -2.2
v 2 2.7 -2.3
v 2.1 2.7 -2.3
v 1.9 2.7 -2.4
v 2 2.7 -2.4
v 2.1 2.7 -2.4
v 1.9 2.7 -2.5
v 2 2.7 -2.5
v 1.9 2.9 -2.1
v 2 2.9 -2.1
v 1.9 2.9 -2.3
v 2 2.9 -2.3
v 1.9 2.1 -1.9
v 2.2 2.1 -1.9
v 2 2.1 -2
v 2.1 2.1 -2
v 2 2.1 -2.3
v 2.1 2.1 -2.3
v 1.9 2.1 -2.4
v 2.2 2.1 -2.4
v 2 2.2 -2
v 2.1 2.2 -2
v 2 2.2 -2.1
v 2.1 2.2 -2.1
v 2 2.2 -2.2
v 2.1 2.2 -2.2
v 2 2.2 -2.3
v 2.1 2.2 -2.3
v 1.9 2.5 -1.7
v 2 2.5 -1.7
v 1.9 2.5 -2
v 2 2.5 -2
v 2.1 2.5 -2
v 2 2.5 -2.1
v 2.1 2.5 -2.1
v 1.9 2.7 -2.1
v 2 2.7 -2.1
v 1.9 2.7 -2.3
v 2 2.7 -2.3
v 1.9 2.9 -1.9
v 2 2.9 -1.9
v 1.9 2.9 -2
v 2 2.9 -2
v 2.1 2.9 -2
v 2 2.9 -2.1
v 2.1 2.9 -2.1
v 2 2.9 -2.3
v 2.1 2.9 -2.3
v 1.9 2.9 -2.4
v 2 2.9 -2.4
v 2.1 2.9 -2.4
v 1.9 2.9 -2.5
v 2 2.9 -2.5
v 1.9 3 -2
v 2 3 -2
v 1.9 3 -2.1
v 2 3 -2.1
v 2.1 3 -2.1
v 1.9 3 -2.3
v 2 3 -2.3
v 2.1 3 -2.3
v 1.9 3 -2.4
v 2 3 -2.4
v 1.9 3.1 -2.1
v 2 3.1 -2.1
v 1.9 3.1 -2.3
v 2 3.1 -2.3

# faces
f 3/2/1 2/2/1 1/2/1
f 4/2/1 2/2/1 3/2/1
f 8/5/1 6/5/1 5/5/1
f 9/5/1 8/5/1 7/5/1
f 10/5/1 6/5/1 8/5/1
f 10/5/1 8/5/1 9/5/1
f 15/3/1 12/3/1 11/3/1
f 16/4/1 13/4/1 12/4/1
f 16/3/1 12/3/1 15/3/1
f 17/4/1 13/4/1 16/4/1
f 20/4/1 15/4/1 14/4/1
f 21/3/1 16/3/1 15/3/1
f 21/3/1 17/3/1 16/3/1
f 21/4/1 15/4/1 20/4/1
f 22/4/1 18/4/1 17/4/1
f 22/3/1 17/3/1 21/3/1
f 23/4/1 18/4/1 22/4/1
f 25/3/1 20/3/1 19/3/1
f 26/4/1 21/4/1 20/4/1
f 26/3/1 20/3/1 25/3/1
f 27/4/1 21/4/1 26/4/1
f 28/3/1 23/3/1 22/3/1
f 28/4/1 24/4/1 23/4/1
f 29/4/1 24/4/1 28/4/1
f 30/4/1 26/4/1 25/4/1
f 31/3/1 27/3/1 26/3/1
f 31/4/1 26/4/1 30/4/1
f 32/3/1 27/3/1 31/3/1
f 33/3/1 28/3/1 22/3/1
f 33/3/1 29/3/1 28/3/1
f 34/3/1 29/3/1 33/3/1
f 35/3/1 29/3/1 34/3/1
f 36/4/1 32/4/1 31/4/1
f 37/3/1 33/3/1 32/3/1
f 37/4/1 32/4/1 36/4/1
f 38/4/1 34/4/1 33/4/1
f 38/3/1 33/3/1 37/3/1
f 39/4/1 34/4/1 38/4/1
f 40/4/1 38/4/1 37/4/1
f 41/4/1 38/4/1 40/4/1
f 44/5/1 43/5/1 42/5/1
f 45/5/1 43/5/1 44/5/1
f 46/5/1 43/5/1 45/5/1
f 47/5/1 43/5/1 46/5/1
f 49/5/1 46/5/1 45/5/1
f 50/5/1 49/5/1 48/5/1
f 51/5/1 46/5/1 49/5/1
f 51/5/1 49/5/1 50/5/1
f 52/5/1 46/5/1 51/5/1
f 55/1/1 54/1/1 53/1/1
f 56/1/1 54/1/1 55/1/1
f 57/1/1 54/1/1 56/1/1
f 58/5/2 59/5/2 61/5/2
f 61/5/2 59/5/2 62/5/2
f 60/5/2 61/5/2 63/5/2
f 61/5/2 62/5/2 63/5/2
f 63/5/2 62/5/2 64/5/2
f 65/4/2 66/4/2 69/4/2
f 69/4/2 66/4/2 70/4/2
f 67/4/2 68/4/2 73/4/2
f 73/4/2 68/4/2 74/4/2
f 69/3/2 70/3/2 75/3/2
f 70/4/2 71/4/2 76/4/2
f 75/3/2 70/3/2 76/3/2
f 76/4/2 71/4/2 77/4/2
f 72/3/2 73/3/2 79/3/2
f 79/3/2 73/3/2 80/3/2
f 77/4/2 78/4/2 81/4/2
f 81/4/2 78/4/2 82/4/2
f 79/4/2 80/4/2 83/4/2
f 83/4/2 80/4/2 84/4/2
f 81/3/2 82/3/2 87/3/2
f 87/3/2 82/3/2 88/3/2
f 84/4/2 85/4/2 89/4/2
f 89/4/2 85/4/2 90/4/2
f 86/4/2 87/4/2 91/4/2
f 91/4/2 87/4/2 92/4/2
f 90/4/2 91/4/2 93/4/2
f 93/4/2 91/4/2 94/4/2
f 95/5/2 96/5/2 97/5/2
f 97/5/2 96/5/2 98/5/2
f 98/5/2 96/5/2 99/5/2
f 99/5/2 96/5/2 100/5/2
f 98/5/2 99/5/2 102/5/2
f 101/5/2 102/5/2 103/5/2
f 102/5/2 99/5/2 104/5/2
f 103/5/2 102/5/2 104/5/2
f 104/5/2 99/5/2 106/5/2
f 106/5/2 99/5/2 107/5/2
f 105/3/2 106/3/2 110/3/2
f 107/1/2 108/1/2 111/1/2
f 110/3/2 106/3/2 111/3/2
f 106/1/2 107/1/2 111/1/2
f 108/3/2 109/3/2 112/3/2
f 111/1/2 108/1/2 112/1/2
f 112/3/2 109/3/2 113/3/2
f 111/3/2 112/3/2 114/3/2
f 114/3/2 112/3/2 115/3/2
f 116/2/2 117/2/2 118/2/2
f 118/2/2 117/2/2 119/2/2
f 122/5/3 121/5/3 120/5/3
f 123/5/3 121/5/3 122/5/3
f 126/5/3 125/5/3 124/5/3
f 127/5/3 125/5/3 126/5/3
f 133/3/3 131/3/3 130/3/3
f 134/4/3 132/4/3 131/4/3
f 134/3/3 131/3/3 133/3/3
f 135/4/3 132/4/3 134/4/3
f 136/2/3 129/2/3 128/2/3
f 137/2/3 129/2/3 136/2/3
f 146/4/3 139/4/3 138/4/3
f 147/4/3 139/4/3 146/4/3
f 149/4/3 141/4/3 140/4/3
f 150/4/3 141/4/3 149/4/3
f 151/5/3 143/5/3 142/5/3
f 152/5/3 143/5/3 151/5/3
f 153/5/3 145/5/3 144/5/3
f 154/5/3 145/5/3 153/5/3
f 155/3/3 148/3/3 147/3/3
f 155/3/3 149/3/3 148/3/3
f 156/3/3 149/3/3 155/3/3
f 163/3/3 158/3/3 157/3/3
f 164/3/3 158/3/3 163/3/3
f 167/4/3 160/4/3 159/4/3
f 168/4/3 160/4/3 167/4/3
f 169/5/3 162/5/3 161/5/3
f 170/5/3 162/5/3 169/5/3
f 171/5/3 165/5/3 164/5/3
f 171/5/3 164/5/3 163/5/3
f 172/5/3 165/5/3 171/5/3
f 173/3/3 167/3/3 166/3/3
f 174/3/3 167/3/3 173/3/3
f 177/3/3 176/3/3 175/3/3
f 178/3/3 176/3/3 177/3/3
f 179/5/4 180/5/4 181/5/4
f 181/5/4 180/5/4 182/5/4
f 182/5/4 180/5/4 183/5/4
f 184/4/4 185/4/4 187/4/4
f 185/3/4 186/3/4 188/3/4
f 187/4/4 185/4/4 188/4/4
f 188/3/4 186/3/4 189/3/4
f 190/5/4 191/5/4 194/5/4
f 192/5/4 193/5/4 194/5/4
f 191/5/4 192/5/4 194/5/4
f 194/5/4 193/5/4 195/5/4
f 196/4/4 197/4/4 202/4/4
f 202/4/4 197/4/4 203/4/4
f 198/4/4 199/4/4 205/4/4
f 205/4/4 199/4/4 206/4/4
f 200/5/4 201/5/4 207/5/4
f 207/5/4 201/5/4 208/5/4
f 204/3/4 205/3/4 209/3/4
f 209/3/4 205/3/4 210/3/4
f 213/4/4 214/4/4 217/4/4
f 217/4/4 214/4/4 218/4/4
f 215/4/4 216/4/4 220/4/4
f 220/4/4 216/4/4 221/4/4
f 218/3/4 219/3/4 222/3/4
f 219/3/4 220/3/4 222/3/4
f 222/3/4 220/3/4 223/3/4
f 211/2/4 212/2/4 224/2/4
f 224/2/4 212/2/4 225/2/4
f 226/4/4 227/4/4 229/4/4
f 227/3/4 228/3/4 230/3/4
f 229/4/4 227/4/4 230/4/4
f 230/3/4 228/3/4 231/3/4
f 234/2/5 233/2/5 232/2/5
f 235/2/5 233/2/5 234/2/5
f 238/5/5 237/5/5 236/5/5
f 239/5/5 237/5/5 238/5/5
f 242/5/5 241/5/5 240/5/5
f 243/5/5 241/5/5 242/5/5
f 246/5/5 245/5/5 244/5/5
f 247/5/5 245/5/5 246/5/5
f 250/3/5 249/3/5 248/3/5
f 251/3/5 249/3/5 250/3/5
f 252/4/5 251/4/5 250/4/5
f 253/4/5 251/4/5 252/4/5
f 256/4/5 255/4/5 254/4/5
f 257/4/5 255/4/5 256/4/5
f 260/4/5 259/4/5 258/4/5
f 261/4/5 259/4/5 260/4/5
f 264/3/5 263/3/5 262/3/5
f 265/3/5 263/3/5 264/3/5
f 267/3/5 266/3/5 265/3/5
f 268/3/5 266/3/5 267/3/5
f 271/1/5 270/1/5 269/1/5
f 272/1/5 270/1/5 271/1/5
f 274/3/5 272/3/5 271/3/5
f 275/3/5 272/3/5 274/3/5
f 276/4/5 274/4/5 273/4/5
f 277/4/5 274/4/5 276/4/5
f 280/3/5 279/3/5 278/3/5
f 281/3/5 279/3/5 280/3/5
f 282/2/6 283/2/6 284/2/6
f 284/2/6 283/2/6 285/2/6
f 282/2/6 284/2/6 286/2/6
f 285/2/6 283/2/6 287/2/6
f 282/2/6 286/2/6 288/2/6
f 286/2/6 287/2/6 288/2/6
f 287/2/6 283/2/6 289/2/6
f 288/2/6 287/2/6 289/2/6
f 290/5/6 291/5/6 292/5/6
f 292/5/6 291/5/6 293/5/6
f 294/5/6 295/5/6 296/5/6
f 296/5/6 295/5/6 297/5/6
f 298/5/6 299/5/6 300/5/6
f 300/5/6 299/5/6 301/5/6
f 301/5/6 302/5/6 303/5/6
f 303/5/6 302/5/6 304/5/6
f 305/3/6 306/3/6 307/3/6
f 307/3/6 306/3/6 308/3/6
f 309/4/6 310/4/6 311/4/6
f 311/4/6 310/4/6 312/4/6
f 312/3/6 313/3/6 314/3/6
f 314/3/6 313/3/6 315/3/6
f 316/3/6 317/3/6 319/3/6
f 319/3/6 317/3/6 320/3/6
f 318/3/6 319/3/6 321/3/6
f 321/3/6 319/3/6 322/3/6
f 323/4/6 324/4/6 325/4/6
f 325/4/6 324/4/6 326/4/6
f 326/3/6 327/3/6 329/3/6
f 329/3/6 327/3/6 330/3/6
f 328/4/6 329/4/6 331/4/6
f 331/4/6 329/4/6 332/4/6
f 333/4/6 334/4/6 335/4/6
f 335/4/6 334/4/6 336/4/6
