# MagicaVoxel @ Ephtracy

# group
o 

# material
mtllib bumble.mtl
usemtl palette

# normals
vn -1 0 0
vn 1 0 0
vn 0 0 1
vn 0 0 -1
vn 0 -1 0
vn 0 1 0

# texcoords
vt 0.0214844 0.5
vt 0.912109 0.5
vt 0.955078 0.5
vt 0.958984 0.5

# verts
v 0 2 0
v 0 2 -0.9
v 0 2 -1.7
v 0 2 -2.3
v 0 2 -3.1
v 0 2 -3.7
v 0 2 -4
v 0 5 -0.2
v 0 5 -0.9
v 0 5 -1.7
v 0 5 -2.3
v 0 5 -3.1
v 0 5 -3.7
v 0 5 -4
v 0 5.1 0
v 0 5.1 -0.2
v 0 5.5 0
v 0 5.5 -0.5
v 0 6 0
v 0 6 -0.5
v 0.1 5 -0.2
v 0.1 5 -0.5
v 0.1 5.1 -0.2
v 0.1 5.5 -0.2
v 0.1 5.5 -0.5
v 3.3 4.9 0
v 3.3 4.9 -0.9
v 3.3 4.9 -1.7
v 3.3 4.9 -2.3
v 3.3 4.9 -3.1
v 3.3 4.9 -3.7
v 3.3 4.9 -4
v 3.3 5 -0.5
v 3.3 5 -0.9
v 3.3 5 -1.7
v 3.3 5 -2.3
v 3.3 5 -3.1
v 3.3 5 -3.7
v 3.3 5 -4
v 3.3 5.1 0
v 3.3 5.1 -0.2
v 3.3 5.2 -0.2
v 3.3 5.2 -0.5
v 3.4 5.5 0
v 3.4 5.5 -0.5
v 3.4 5.9 0
v 3.4 5.9 -0.5
v 3.5 5.2 -0.2
v 3.5 5.2 -0.5
v 3.5 5.5 -0.2
v 3.5 5.5 -0.5
v 3.5 5.9 0
v 3.5 5.9 -0.5
v 3.5 6 0
v 3.5 6 -0.5
v 0.4 5.9 0
v 0.4 5.9 -0.5
v 0.4 6 0
v 0.4 6 -0.5
v 0.5 5.2 -0.2
v 0.5 5.2 -0.5
v 0.5 5.5 -0.2
v 0.5 5.5 -0.5
v 0.6 5.5 0
v 0.6 5.5 -0.5
v 0.6 5.9 0
v 0.6 5.9 -0.5
v 0.7 4.9 0
v 0.7 4.9 -0.9
v 0.7 4.9 -1.7
v 0.7 4.9 -2.3
v 0.7 4.9 -3.1
v 0.7 4.9 -3.7
v 0.7 4.9 -4
v 0.7 5 -0.5
v 0.7 5 -0.9
v 0.7 5 -1.7
v 0.7 5 -2.3
v 0.7 5 -3.1
v 0.7 5 -3.7
v 0.7 5 -4
v 0.7 5.1 0
v 0.7 5.1 -0.2
v 0.7 5.2 -0.2
v 0.7 5.2 -0.5
v 3.9 5 -0.2
v 3.9 5 -0.5
v 3.9 5.1 -0.2
v 3.9 5.5 -0.2
v 3.9 5.5 -0.5
v 4 2 0
v 4 2 -0.9
v 4 2 -1.7
v 4 2 -2.3
v 4 2 -3.1
v 4 2 -3.7
v 4 2 -4
v 4 5 -0.2
v 4 5 -0.9
v 4 5 -1.7
v 4 5 -2.3
v 4 5 -3.1
v 4 5 -3.7
v 4 5 -4
v 4 5.1 0
v 4 5.1 -0.2
v 4 5.5 0
v 4 5.5 -0.5
v 4 6 0
v 4 6 -0.5
v 0 2 0
v 0 5.1 0
v 0 5.5 0
v 0 6 0
v 0.4 5.9 0
v 0.4 6 0
v 0.6 5.5 0
v 0.6 5.9 0
v 0.7 3.2 0
v 0.7 4.4 0
v 0.7 4.9 0
v 0.7 5.1 0
v 0.8 3.9 0
v 0.8 4.3 0
v 1.2 3.9 0
v 1.2 4.3 0
v 1.6 3.2 0
v 1.6 4.4 0
v 1.9 2.5 0
v 1.9 2.6 0
v 2.1 2.5 0
v 2.1 2.6 0
v 2.4 3.2 0
v 2.4 4.4 0
v 2.5 3.9 0
v 2.5 4.3 0
v 2.9 3.9 0
v 2.9 4.3 0
v 3.3 3.2 0
v 3.3 4.4 0
v 3.3 4.9 0
v 3.3 5.1 0
v 3.4 5.5 0
v 3.4 5.9 0
v 3.5 5.9 0
v 3.5 6 0
v 4 2 0
v 4 5.1 0
v 4 5.5 0
v 4 6 0
v 0.1 5.1 -0.2
v 0.1 5.5 -0.2
v 0.5 5.2 -0.2
v 0.5 5.5 -0.2
v 0.7 5.1 -0.2
v 0.7 5.2 -0.2
v 3.3 5.1 -0.2
v 3.3 5.2 -0.2
v 3.5 5.2 -0.2
v 3.5 5.5 -0.2
v 3.9 5.1 -0.2
v 3.9 5.5 -0.2
v 0 5 -0.2
v 0 5.1 -0.2
v 0.1 5 -0.2
v 0.1 5.1 -0.2
v 3.9 5 -0.2
v 3.9 5.1 -0.2
v 4 5 -0.2
v 4 5.1 -0.2
v 0 5.5 -0.5
v 0 6 -0.5
v 0.1 5 -0.5
v 0.1 5.5 -0.5
v 0.4 5.9 -0.5
v 0.4 6 -0.5
v 0.5 5.2 -0.5
v 0.5 5.5 -0.5
v 0.6 5.5 -0.5
v 0.6 5.9 -0.5
v 0.7 5 -0.5
v 0.7 5.2 -0.5
v 3.3 5 -0.5
v 3.3 5.2 -0.5
v 3.4 5.5 -0.5
v 3.4 5.9 -0.5
v 3.5 5.2 -0.5
v 3.5 5.5 -0.5
v 3.5 5.9 -0.5
v 3.5 6 -0.5
v 3.9 5 -0.5
v 3.9 5.5 -0.5
v 4 5.5 -0.5
v 4 6 -0.5
v 0 2 -4
v 0 5 -4
v 0.1 2.1 -4
v 0.1 4.8 -4
v 0.7 4.9 -4
v 0.7 5 -4
v 3.3 4.9 -4
v 3.3 5 -4
v 3.9 2.1 -4
v 3.9 4.8 -4
v 4 2 -4
v 4 5 -4
v 0 2 0
v 4 2 0
v 0 2 -0.9
v 4 2 -0.9
v 0 2 -1.7
v 4 2 -1.7
v 0 2 -2.3
v 4 2 -2.3
v 0 2 -3.1
v 4 2 -3.1
v 0 2 -3.7
v 4 2 -3.7
v 0 2 -4
v 4 2 -4
v 0 5.5 0
v 0.6 5.5 0
v 3.4 5.5 0
v 4 5.5 0
v 0.1 5.5 -0.2
v 0.5 5.5 -0.2
v 3.5 5.5 -0.2
v 3.9 5.5 -0.2
v 0 5.5 -0.5
v 0.1 5.5 -0.5
v 0.5 5.5 -0.5
v 0.6 5.5 -0.5
v 3.4 5.5 -0.5
v 3.5 5.5 -0.5
v 3.9 5.5 -0.5
v 4 5.5 -0.5
v 0.7 4.9 0
v 3.3 4.9 0
v 0.7 4.9 -0.9
v 3.3 4.9 -0.9
v 0.7 4.9 -1.7
v 3.3 4.9 -1.7
v 0.7 4.9 -2.3
v 3.3 4.9 -2.3
v 0.7 4.9 -3.1
v 3.3 4.9 -3.1
v 0.7 4.9 -3.7
v 3.3 4.9 -3.7
v 0.7 4.9 -4
v 3.3 4.9 -4
v 0 5 -0.2
v 0.1 5 -0.2
v 3.9 5 -0.2
v 4 5 -0.2
v 0.1 5 -0.5
v 0.7 5 -0.5
v 3.3 5 -0.5
v 3.9 5 -0.5
v 0 5 -0.9
v 0.7 5 -0.9
v 3.3 5 -0.9
v 4 5 -0.9
v 0 5 -1.7
v 0.7 5 -1.7
v 3.3 5 -1.7
v 4 5 -1.7
v 0 5 -2.3
v 0.7 5 -2.3
v 3.3 5 -2.3
v 4 5 -2.3
v 0 5 -3.1
v 0.7 5 -3.1
v 3.3 5 -3.1
v 4 5 -3.1
v 0 5 -3.7
v 0.7 5 -3.7
v 3.3 5 -3.7
v 4 5 -3.7
v 0 5 -4
v 0.7 5 -4
v 3.3 5 -4
v 4 5 -4
v 0 5.1 0
v 0.7 5.1 0
v 3.3 5.1 0
v 4 5.1 0
v 0 5.1 -0.2
v 0.1 5.1 -0.2
v 0.7 5.1 -0.2
v 3.3 5.1 -0.2
v 3.9 5.1 -0.2
v 4 5.1 -0.2
v 0.5 5.2 -0.2
v 0.7 5.2 -0.2
v 3.3 5.2 -0.2
v 3.5 5.2 -0.2
v 0.5 5.2 -0.5
v 0.7 5.2 -0.5
v 3.3 5.2 -0.5
v 3.5 5.2 -0.5
v 0.4 5.9 0
v 0.6 5.9 0
v 3.4 5.9 0
v 3.5 5.9 0
v 0.4 5.9 -0.5
v 0.6 5.9 -0.5
v 3.4 5.9 -0.5
v 3.5 5.9 -0.5
v 0 6 0
v 0.4 6 0
v 3.5 6 0
v 4 6 0
v 0 6 -0.5
v 0.4 6 -0.5
v 3.5 6 -0.5
v 4 6 -0.5

# faces
f 8/1/1 2/1/1 1/1/1
f 9/3/1 3/3/1 2/3/1
f 9/1/1 2/1/1 8/1/1
f 10/1/1 4/1/1 3/1/1
f 10/3/1 3/3/1 9/3/1
f 11/3/1 5/3/1 4/3/1
f 11/1/1 4/1/1 10/1/1
f 12/1/1 6/1/1 5/1/1
f 12/3/1 5/3/1 11/3/1
f 13/3/1 7/3/1 6/3/1
f 13/1/1 6/1/1 12/1/1
f 14/3/1 7/3/1 13/3/1
f 15/1/1 8/1/1 1/1/1
f 16/1/1 8/1/1 15/1/1
f 19/2/1 18/2/1 17/2/1
f 20/2/1 18/2/1 19/2/1
f 23/1/1 22/1/1 21/1/1
f 24/1/1 22/1/1 23/1/1
f 25/1/1 22/1/1 24/1/1
f 33/1/1 27/1/1 26/1/1
f 34/3/1 28/3/1 27/3/1
f 34/1/1 27/1/1 33/1/1
f 35/1/1 29/1/1 28/1/1
f 35/3/1 28/3/1 34/3/1
f 36/3/1 30/3/1 29/3/1
f 36/1/1 29/1/1 35/1/1
f 37/1/1 31/1/1 30/1/1
f 37/3/1 30/3/1 36/3/1
f 38/3/1 32/3/1 31/3/1
f 38/1/1 31/1/1 37/1/1
f 39/3/1 32/3/1 38/3/1
f 40/1/1 33/1/1 26/1/1
f 41/1/1 33/1/1 40/1/1
f 42/1/1 33/1/1 41/1/1
f 43/1/1 33/1/1 42/1/1
f 46/2/1 45/2/1 44/2/1
f 47/2/1 45/2/1 46/2/1
f 50/1/1 49/1/1 48/1/1
f 51/1/1 49/1/1 50/1/1
f 54/2/1 53/2/1 52/2/1
f 55/2/1 53/2/1 54/2/1
f 56/2/2 57/2/2 58/2/2
f 58/2/2 57/2/2 59/2/2
f 60/1/2 61/1/2 62/1/2
f 62/1/2 61/1/2 63/1/2
f 64/2/2 65/2/2 66/2/2
f 66/2/2 65/2/2 67/2/2
f 68/1/2 69/1/2 75/1/2
f 69/3/2 70/3/2 76/3/2
f 75/1/2 69/1/2 76/1/2
f 70/1/2 71/1/2 77/1/2
f 76/3/2 70/3/2 77/3/2
f 71/3/2 72/3/2 78/3/2
f 77/1/2 71/1/2 78/1/2
f 72/1/2 73/1/2 79/1/2
f 78/3/2 72/3/2 79/3/2
f 73/3/2 74/3/2 80/3/2
f 79/1/2 73/1/2 80/1/2
f 80/3/2 74/3/2 81/3/2
f 68/1/2 75/1/2 82/1/2
f 82/1/2 75/1/2 83/1/2
f 83/1/2 75/1/2 84/1/2
f 84/1/2 75/1/2 85/1/2
f 86/1/2 87/1/2 88/1/2
f 88/1/2 87/1/2 89/1/2
f 89/1/2 87/1/2 90/1/2
f 91/1/2 92/1/2 98/1/2
f 92/3/2 93/3/2 99/3/2
f 98/1/2 92/1/2 99/1/2
f 93/1/2 94/1/2 100/1/2
f 99/3/2 93/3/2 100/3/2
f 94/3/2 95/3/2 101/3/2
f 100/1/2 94/1/2 101/1/2
f 95/1/2 96/1/2 102/1/2
f 101/3/2 95/3/2 102/3/2
f 96/3/2 97/3/2 103/3/2
f 102/1/2 96/1/2 103/1/2
f 103/3/2 97/3/2 104/3/2
f 91/1/2 98/1/2 105/1/2
f 105/1/2 98/1/2 106/1/2
f 107/2/2 108/2/2 109/2/2
f 109/2/2 108/2/2 110/2/2
f 115/2/3 114/2/3 113/2/3
f 116/2/3 114/2/3 115/2/3
f 117/2/3 115/2/3 113/2/3
f 118/2/3 115/2/3 117/2/3
f 119/1/3 112/1/3 111/1/3
f 120/1/3 112/1/3 119/1/3
f 121/1/3 112/1/3 120/1/3
f 122/1/3 112/1/3 121/1/3
f 123/3/3 120/3/3 119/3/3
f 124/3/3 120/3/3 123/3/3
f 125/3/3 123/3/3 119/3/3
f 125/4/3 124/4/3 123/4/3
f 126/3/3 120/3/3 124/3/3
f 126/4/3 124/4/3 125/4/3
f 127/1/3 119/1/3 111/1/3
f 127/3/3 125/3/3 119/3/3
f 127/3/3 126/3/3 125/3/3
f 128/3/3 120/3/3 126/3/3
f 128/3/3 126/3/3 127/3/3
f 128/1/3 121/1/3 120/1/3
f 129/1/3 127/1/3 111/1/3
f 129/1/3 128/1/3 127/1/3
f 130/1/3 128/1/3 129/1/3
f 131/1/3 129/1/3 111/1/3
f 131/3/3 130/3/3 129/3/3
f 132/1/3 128/1/3 130/1/3
f 132/3/3 130/3/3 131/3/3
f 133/1/3 132/1/3 131/1/3
f 133/1/3 128/1/3 132/1/3
f 134/1/3 121/1/3 128/1/3
f 134/1/3 128/1/3 133/1/3
f 135/3/3 134/3/3 133/3/3
f 136/3/3 134/3/3 135/3/3
f 137/3/3 135/3/3 133/3/3
f 137/4/3 136/4/3 135/4/3
f 138/3/3 134/3/3 136/3/3
f 138/4/3 136/4/3 137/4/3
f 139/1/3 133/1/3 131/1/3
f 139/3/3 137/3/3 133/3/3
f 139/3/3 138/3/3 137/3/3
f 140/3/3 134/3/3 138/3/3
f 140/3/3 138/3/3 139/3/3
f 140/1/3 121/1/3 134/1/3
f 141/1/3 121/1/3 140/1/3
f 145/2/3 144/2/3 143/2/3
f 147/1/3 139/1/3 131/1/3
f 147/1/3 142/1/3 141/1/3
f 147/1/3 141/1/3 140/1/3
f 147/1/3 140/1/3 139/1/3
f 147/1/3 131/1/3 111/1/3
f 148/1/3 142/1/3 147/1/3
f 149/2/3 145/2/3 143/2/3
f 149/2/3 146/2/3 145/2/3
f 150/2/3 146/2/3 149/2/3
f 153/1/3 152/1/3 151/1/3
f 154/1/3 152/1/3 153/1/3
f 155/1/3 153/1/3 151/1/3
f 156/1/3 153/1/3 155/1/3
f 159/1/3 158/1/3 157/1/3
f 161/1/3 159/1/3 157/1/3
f 161/1/3 160/1/3 159/1/3
f 162/1/3 160/1/3 161/1/3
f 163/1/4 164/1/4 165/1/4
f 165/1/4 164/1/4 166/1/4
f 167/1/4 168/1/4 169/1/4
f 169/1/4 168/1/4 170/1/4
f 171/2/4 172/2/4 174/2/4
f 174/2/4 172/2/4 175/2/4
f 175/2/4 172/2/4 176/2/4
f 173/1/4 174/1/4 177/1/4
f 174/2/4 175/2/4 178/2/4
f 177/1/4 174/1/4 178/1/4
f 178/2/4 175/2/4 179/2/4
f 179/2/4 175/2/4 180/2/4
f 173/1/4 177/1/4 181/1/4
f 181/1/4 177/1/4 182/1/4
f 183/1/4 184/1/4 187/1/4
f 185/2/4 186/2/4 188/2/4
f 188/2/4 186/2/4 189/2/4
f 183/1/4 187/1/4 191/1/4
f 187/1/4 188/1/4 191/1/4
f 188/2/4 189/2/4 192/2/4
f 191/1/4 188/1/4 192/1/4
f 189/2/4 190/2/4 192/2/4
f 192/2/4 190/2/4 193/2/4
f 193/2/4 190/2/4 194/2/4
f 195/3/4 196/3/4 197/3/4
f 197/3/4 196/3/4 198/3/4
f 198/3/4 196/3/4 199/3/4
f 199/3/4 196/3/4 200/3/4
f 198/3/4 199/3/4 201/3/4
f 195/3/4 197/3/4 203/3/4
f 197/1/4 198/1/4 203/1/4
f 201/3/4 202/3/4 204/3/4
f 203/1/4 198/1/4 204/1/4
f 198/3/4 201/3/4 204/3/4
f 195/3/4 203/3/4 205/3/4
f 203/3/4 204/3/4 205/3/4
f 204/3/4 202/3/4 206/3/4
f 205/3/4 204/3/4 206/3/4
f 209/1/5 208/1/5 207/1/5
f 210/1/5 208/1/5 209/1/5
f 211/3/5 210/3/5 209/3/5
f 212/3/5 210/3/5 211/3/5
f 213/1/5 212/1/5 211/1/5
f 214/1/5 212/1/5 213/1/5
f 215/3/5 214/3/5 213/3/5
f 216/3/5 214/3/5 215/3/5
f 217/1/5 216/1/5 215/1/5
f 218/1/5 216/1/5 217/1/5
f 219/3/5 218/3/5 217/3/5
f 220/3/5 218/3/5 219/3/5
f 225/2/5 222/2/5 221/2/5
f 226/2/5 222/2/5 225/2/5
f 227/2/5 224/2/5 223/2/5
f 228/2/5 224/2/5 227/2/5
f 229/2/5 225/2/5 221/2/5
f 230/2/5 225/2/5 229/2/5
f 231/2/5 222/2/5 226/2/5
f 232/2/5 222/2/5 231/2/5
f 233/2/5 227/2/5 223/2/5
f 234/2/5 227/2/5 233/2/5
f 235/2/5 224/2/5 228/2/5
f 236/2/5 224/2/5 235/2/5
f 237/1/6 238/1/6 239/1/6
f 239/1/6 238/1/6 240/1/6
f 239/3/6 240/3/6 241/3/6
f 241/3/6 240/3/6 242/3/6
f 241/1/6 242/1/6 243/1/6
f 243/1/6 242/1/6 244/1/6
f 243/3/6 244/3/6 245/3/6
f 245/3/6 244/3/6 246/3/6
f 245/1/6 246/1/6 247/1/6
f 247/1/6 246/1/6 248/1/6
f 247/3/6 248/3/6 249/3/6
f 249/3/6 248/3/6 250/3/6
f 251/1/6 252/1/6 255/1/6
f 253/1/6 254/1/6 258/1/6
f 255/1/6 256/1/6 259/1/6
f 251/1/6 255/1/6 259/1/6
f 259/1/6 256/1/6 260/1/6
f 257/1/6 258/1/6 261/1/6
f 258/1/6 254/1/6 262/1/6
f 261/1/6 258/1/6 262/1/6
f 259/3/6 260/3/6 263/3/6
f 263/3/6 260/3/6 264/3/6
f 261/3/6 262/3/6 265/3/6
f 265/3/6 262/3/6 266/3/6
f 263/1/6 264/1/6 267/1/6
f 267/1/6 264/1/6 268/1/6
f 265/1/6 266/1/6 269/1/6
f 269/1/6 266/1/6 270/1/6
f 267/3/6 268/3/6 271/3/6
f 271/3/6 268/3/6 272/3/6
f 269/3/6 270/3/6 273/3/6
f 273/3/6 270/3/6 274/3/6
f 271/1/6 272/1/6 275/1/6
f 275/1/6 272/1/6 276/1/6
f 273/1/6 274/1/6 277/1/6
f 277/1/6 274/1/6 278/1/6
f 275/3/6 276/3/6 279/3/6
f 279/3/6 276/3/6 280/3/6
f 277/3/6 278/3/6 281/3/6
f 281/3/6 278/3/6 282/3/6
f 283/1/6 284/1/6 287/1/6
f 287/1/6 284/1/6 288/1/6
f 288/1/6 284/1/6 289/1/6
f 285/1/6 286/1/6 290/1/6
f 290/1/6 286/1/6 291/1/6
f 291/1/6 286/1/6 292/1/6
f 293/1/6 294/1/6 297/1/6
f 297/1/6 294/1/6 298/1/6
f 295/1/6 296/1/6 299/1/6
f 299/1/6 296/1/6 300/1/6
f 301/2/6 302/2/6 305/2/6
f 305/2/6 302/2/6 306/2/6
f 303/2/6 304/2/6 307/2/6
f 307/2/6 304/2/6 308/2/6
f 309/2/6 310/2/6 313/2/6
f 313/2/6 310/2/6 314/2/6
f 311/2/6 312/2/6 315/2/6
f 315/2/6 312/2/6 316/2/6
